<?xml version="1.0" encoding="UTF-8"?>
<svg width="18px" height="18px" viewBox="0 0 18 18" version="1.1" xmlns="http://www.w3.org/2000/svg" xmlns:xlink="http://www.w3.org/1999/xlink">
    <!-- Generator: Sketch 57.1 (83088) - https://sketch.com -->
    <title>消费队列-02</title>
    <desc>Created with Sketch.</desc>
    <g id="icon" stroke="none" stroke-width="1" fill="none" fill-rule="evenodd">
        <g id="Artboard" transform="translate(-40.000000, -149.000000)" fill="#8C8D94" fill-rule="nonzero">
            <path d="M57,155 C57.5522847,155 58,155.447715 58,156 L58,164 C58,164.552285 57.5522847,165 57,165 L54,165 L52.124695,166.500244 C51.7594764,166.792419 51.2405236,166.792419 50.875305,166.500244 L49,165 L41,165 C40.4477153,165 40,164.552285 40,164 L40,156 C40,155.447715 40.4477153,155 41,155 L57,155 Z M56,157 L42,157 L42,163 L49.7015621,163 L51.5,164.43875 L53.2984379,163 L56,163 L56,157 Z M46,159 L46,161 L44,161 L44,159 L46,159 Z M50,159 L50,161 L48,161 L48,159 L50,159 Z M54,159 L54,161 L52,161 L52,159 L54,159 Z M55,152 C55.5522847,152 56,152.447715 56,153 C56,153.552285 55.5522847,154 55,154 L43,154 C42.4477153,154 42,153.552285 42,153 C42,152.447715 42.4477153,152 43,152 L55,152 Z M53,149 C53.5522847,149 54,149.447715 54,150 C54,150.552285 53.5522847,151 53,151 L45,151 C44.4477153,151 44,150.552285 44,150 C44,149.447715 44.4477153,149 45,149 L53,149 Z" id="形状结合"></path>
        </g>
    </g>
</svg>